<svg xmlns="http://www.w3.org/2000/svg" viewBox="0 0 102.88 23.08"><defs><style>.cls-1{fill:#282827;}.cls-2{fill:#e13233;}</style></defs><g id="Layer_2" data-name="Layer 2"><g id="Objects"><path class="cls-1" d="M79,19.7c-.23.31-.39.54-.57.76a3.34,3.34,0,0,1-3.7,1,2.73,2.73,0,0,1-1.6-2.58,45.88,45.88,0,0,1-.08-4.69c0-2.19,0-4.38,0-6.57,0-.57.17-.68.67-.64a13.1,13.1,0,0,0,1.88,0c.57,0,.76.09.75.72,0,3.22,0,6.44,0,9.65a7.3,7.3,0,0,0,.05.94c.08.75.4,1.1.95,1.06a1.38,1.38,0,0,0,1.27-1.23c0-.94,0-1.88,0-2.82,0-2.54,0-5.09,0-7.64,0-.5.08-.72.64-.68A19.28,19.28,0,0,0,81.4,7c.37,0,.5.08.5.48q0,6.74,0,13.47c0,.38-.11.51-.49.48a6.54,6.54,0,0,0-1.4,0c-.63.1-.76-.23-.81-.73C79.17,20.39,79.1,20.1,79,19.7Z"/><path class="cls-1" d="M62.39,19.8c-.22.1-.27.34-.4.51a3.35,3.35,0,0,1-3.77,1.18,2.38,2.38,0,0,1-1.52-1.82,6.7,6.7,0,0,1-.21-1.79c0-3.44,0-6.87,0-10.31,0-.48.12-.62.59-.6.71,0,1.43,0,2.14,0,.44,0,.56.1.56.55,0,3.31,0,6.61,0,9.92a5.93,5.93,0,0,0,0,.73c.06.8.38,1.18.93,1.16A1.39,1.39,0,0,0,62,18V10c0-.84,0-1.69,0-2.54,0-.34.07-.48.44-.46.8,0,1.61,0,2.41,0,.33,0,.42.1.42.42q0,6.8,0,13.6c0,.32-.1.45-.42.41h-.06A5.74,5.74,0,0,1,63,21.36C62.33,21.14,62.75,20.28,62.39,19.8Z"/><path class="cls-1" d="M41.3,11.06a4.14,4.14,0,0,0,.48-1.65c.54-2.44,1.08-4.88,1.59-7.32.07-.35.2-.43.52-.42.74,0,1.48,0,2.21,0,.48,0,.61.05.46.58-.91,3.15-1.71,6.33-2.67,9.46A18.28,18.28,0,0,0,43,18.34c.05.87,0,1.75,0,2.62,0,.34-.09.47-.45.45-.76,0-1.52,0-2.28,0-.43,0-.51-.14-.5-.54,0-1.25,0-2.5,0-3.75a13.35,13.35,0,0,0-.58-4.21c-1-3.56-2-7.13-3-10.7-.13-.44-.08-.59.41-.56a11.54,11.54,0,0,0,1.95,0c.64-.08.81.21.92.77C40.08,5.3,40.69,8.15,41.3,11.06Z"/><path class="cls-1" d="M67.68,12.86c0-2.62,0-5.23,0-7.84,0-.66-.21-.79-.79-.75s-1.34,0-2,0c-.36,0-.47-.1-.44-.45.06-.71-.3-1.63.14-2.06s1.27-.1,1.94-.11c2.32,0,4.64,0,7,0,.46,0,.64.12.59.59-.07.66.28,1.54-.14,1.92s-1.23.11-1.87.11c-1.21,0-1.21,0-1.21,1.24,0,5.07,0,10.14,0,15.21,0,.56-.15.73-.7.69a15,15,0,0,0-2,0c-.42,0-.53-.11-.52-.52C67.69,18.22,67.68,15.54,67.68,12.86Z"/><path class="cls-2" d="M32.84,9.88A34.91,34.91,0,0,0,32.29,4,4.11,4.11,0,0,0,28.81.59a26.8,26.8,0,0,0-4-.37A143.68,143.68,0,0,0,4.8.48,4.29,4.29,0,0,0,.51,4.56a48.48,48.48,0,0,0,0,13.82c.37,2.67,1.7,3.95,4.37,4.24a114.53,114.53,0,0,0,11.57.46c3.87,0,7.73,0,11.58-.45,2.66-.28,4-1.57,4.41-4.2A46.16,46.16,0,0,0,32.84,9.88ZM13.3,16.4c-.22-.1-.14-.28-.14-.42V7.34c0-.2-.1-.46.08-.57s.39.12.58.23l7.07,4.08.78.47Z"/><path class="cls-1" d="M92.81,11.1a7.88,7.88,0,0,0-.55-2.88,2.31,2.31,0,0,0-2-1.49A3.38,3.38,0,0,0,87,8.43V7.79c0-2.08,0-4.15,0-6.23C87,1,86.83.9,86.33.94a9.83,9.83,0,0,1-1.8,0c-.62-.06-.73.17-.73.74,0,6.19,0,12.37,0,18.56,0,1.18,0,1.18,1.19,1.18a4.2,4.2,0,0,0,1.33,0c.5-.17.2-.84.52-1.19,0,0,0,0,.06,0l.18.19a3.12,3.12,0,0,0,3.15,1.17,2.68,2.68,0,0,0,2.1-2,5.92,5.92,0,0,0,.28-1.1A34.65,34.65,0,0,0,92.81,11.1Zm-3.26,5.6a5.36,5.36,0,0,1-.29,1.78,1.07,1.07,0,0,1-1.31.76,1.11,1.11,0,0,1-1-1.19V14.3c0-1.21,0-2.41,0-3.61a1.55,1.55,0,0,1,.35-1,1.26,1.26,0,0,1,1.27-.58,1.08,1.08,0,0,1,.8,1A33.86,33.86,0,0,1,89.55,16.7Z"/><path class="cls-1" d="M54.69,10.82c-.23-1.49-.59-2.92-2.09-3.68a4.37,4.37,0,0,0-6.52,3.22A25.3,25.3,0,0,0,46,17.63c.32,2.71,1.45,3.82,3.76,4,3.05.23,4.6-1.08,4.94-4.12a32.82,32.82,0,0,0,.13-3.28A22.83,22.83,0,0,0,54.69,10.82Zm-3.18,6.5a4.92,4.92,0,0,1-.22,1.31.92.92,0,0,1-1,.77,1,1,0,0,1-.95-.79,6.69,6.69,0,0,1-.22-2c0-.81,0-1.61,0-2.62a25.16,25.16,0,0,1,.14-3.81,2.42,2.42,0,0,1,.22-.69A.87.87,0,0,1,50.37,9a.94.94,0,0,1,.84.57,3.86,3.86,0,0,1,.31,1.64Q51.55,14.24,51.51,17.32Z"/><path class="cls-1" d="M97.94,15.28c.73,0,1.47,0,2.21,0s1.56,0,2.35,0c.28,0,.39-.08.38-.38a32.25,32.25,0,0,0-.19-5,3.61,3.61,0,0,0-1.52-2.65,4.33,4.33,0,0,0-6.53,2.59,22.07,22.07,0,0,0,0,8.72c.4,2.05,1.57,3,3.65,3.06a7.12,7.12,0,0,0,1.13,0,3.43,3.43,0,0,0,3.38-3.41c.1-1,.1-1-1-1.1l-.6,0c-1.18-.1-1.18-.1-1.35,1a2,2,0,0,1,0,.26c-.14.74-.5,1.07-1.15,1.06s-1-.33-1.08-1.11a19.56,19.56,0,0,1-.14-2.54C97.46,15.37,97.59,15.27,97.94,15.28Zm-.5-3.5c.06-.65.09-1.3.19-1.94a1,1,0,0,1,1-.92,1,1,0,0,1,1.06.9A15.64,15.64,0,0,1,99.83,13c0,.23-.11.31-.33.3H99C97.46,13.33,97.46,13.33,97.44,11.78Z"/></g></g></svg>